<?xml version="1.0" encoding="UTF-8"?>
<svg width="512px" height="444px" viewBox="0 0 512 444" version="1.1" xmlns="http://www.w3.org/2000/svg" xmlns:xlink="http://www.w3.org/1999/xlink">
    <!-- Generator: Sketch 3.6.1 (26313) - http://www.bohemiancoding.com/sketch -->
    <title>quiks@1.5x</title>
    <desc>Created with Sketch.</desc>
    <defs></defs>
    <g id="Page-1" stroke="none" stroke-width="1" fill="none" fill-rule="evenodd">
        <g id="quiks">
            <g>
                <g id="barcode">
                    <g id="Group">
                        <path d="M42.6666667,388.266667 C37.9562667,388.266667 34.1333333,384.452267 34.1333333,379.733333 L34.1333333,234.666667 C34.1333333,229.947733 37.9562667,226.133333 42.6666667,226.133333 C47.3770667,226.133333 51.2,229.947733 51.2,234.666667 L51.2,379.733333 C51.2,384.452267 47.3770667,388.266667 42.6666667,388.266667 L42.6666667,388.266667 Z" id="Shape" fill="#D1D4D1"></path>
                        <path d="M469.333333,388.266667 C464.622933,388.266667 460.8,384.452267 460.8,379.733333 L460.8,234.666667 C460.8,229.947733 464.622933,226.133333 469.333333,226.133333 C474.043733,226.133333 477.866667,229.947733 477.866667,234.666667 L477.866667,379.733333 C477.866667,384.452267 474.043733,388.266667 469.333333,388.266667 L469.333333,388.266667 Z" id="Shape" fill="#D1D4D1"></path>
                        <path d="M76.8,320 C72.0896,320 68.2666667,316.1856 68.2666667,311.466667 L68.2666667,234.666667 C68.2666667,229.947733 72.0896,226.133333 76.8,226.133333 C81.5104,226.133333 85.3333333,229.947733 85.3333333,234.666667 L85.3333333,311.466667 C85.3333333,316.1856 81.5104,320 76.8,320 L76.8,320 Z" id="Shape" fill="#D1D4D1"></path>
                        <path d="M102.4,320 C97.6896,320 93.8666667,316.1856 93.8666667,311.466667 L93.8666667,234.666667 C93.8666667,229.947733 97.6896,226.133333 102.4,226.133333 C107.1104,226.133333 110.933333,229.947733 110.933333,234.666667 L110.933333,311.466667 C110.933333,316.1856 107.1104,320 102.4,320 L102.4,320 Z" id="Shape" fill="#D1D4D1"></path>
                        <path d="M145.066667,320 C140.356267,320 136.533333,316.1856 136.533333,311.466667 L136.533333,234.666667 C136.533333,229.947733 140.356267,226.133333 145.066667,226.133333 C149.777067,226.133333 153.6,229.947733 153.6,234.666667 L153.6,311.466667 C153.6,316.1856 149.777067,320 145.066667,320 L145.066667,320 Z" id="Shape" fill="#D1D4D1"></path>
                        <path d="M170.666667,320 C165.956267,320 162.133333,316.1856 162.133333,311.466667 L162.133333,234.666667 C162.133333,229.947733 165.956267,226.133333 170.666667,226.133333 C175.377067,226.133333 179.2,229.947733 179.2,234.666667 L179.2,311.466667 C179.2,316.1856 175.377067,320 170.666667,320 L170.666667,320 Z" id="Shape" fill="#D1D4D1"></path>
                        <path d="M196.266667,320 C191.556267,320 187.733333,316.1856 187.733333,311.466667 L187.733333,234.666667 C187.733333,229.947733 191.556267,226.133333 196.266667,226.133333 C200.977067,226.133333 204.8,229.947733 204.8,234.666667 L204.8,311.466667 C204.8,316.1856 200.977067,320 196.266667,320 L196.266667,320 Z" id="Shape" fill="#D1D4D1"></path>
                        <path d="M247.466667,320 C242.756267,320 238.933333,316.1856 238.933333,311.466667 L238.933333,234.666667 C238.933333,229.947733 242.756267,226.133333 247.466667,226.133333 C252.177067,226.133333 256,229.947733 256,234.666667 L256,311.466667 C256,316.1856 252.177067,320 247.466667,320 L247.466667,320 Z" id="Shape" fill="#D1D4D1"></path>
                        <path d="M290.133333,320 C285.422933,320 281.6,316.1856 281.6,311.466667 L281.6,234.666667 C281.6,229.947733 285.422933,226.133333 290.133333,226.133333 C294.843733,226.133333 298.666667,229.947733 298.666667,234.666667 L298.666667,311.466667 C298.666667,316.1856 294.843733,320 290.133333,320 L290.133333,320 Z" id="Shape" fill="#D1D4D1"></path>
                        <path d="M315.733333,320 C311.022933,320 307.2,316.1856 307.2,311.466667 L307.2,234.666667 C307.2,229.947733 311.022933,226.133333 315.733333,226.133333 C320.443733,226.133333 324.266667,229.947733 324.266667,234.666667 L324.266667,311.466667 C324.266667,316.1856 320.443733,320 315.733333,320 L315.733333,320 Z" id="Shape" fill="#D1D4D1"></path>
                        <path d="M358.4,320 C353.6896,320 349.866667,316.1856 349.866667,311.466667 L349.866667,234.666667 C349.866667,229.947733 353.6896,226.133333 358.4,226.133333 C363.1104,226.133333 366.933333,229.947733 366.933333,234.666667 L366.933333,311.466667 C366.933333,316.1856 363.1104,320 358.4,320 L358.4,320 Z" id="Shape" fill="#D1D4D1"></path>
                        <path d="M384,320 C379.2896,320 375.466667,316.1856 375.466667,311.466667 L375.466667,234.666667 C375.466667,229.947733 379.2896,226.133333 384,226.133333 C388.7104,226.133333 392.533333,229.947733 392.533333,234.666667 L392.533333,311.466667 C392.533333,316.1856 388.7104,320 384,320 L384,320 Z" id="Shape" fill="#D1D4D1"></path>
                        <path d="M435.2,320 C430.4896,320 426.666667,316.1856 426.666667,311.466667 L426.666667,234.666667 C426.666667,229.947733 430.4896,226.133333 435.2,226.133333 C439.9104,226.133333 443.733333,229.947733 443.733333,234.666667 L443.733333,311.466667 C443.733333,316.1856 439.9104,320 435.2,320 L435.2,320 Z" id="Shape" fill="#D1D4D1"></path>
                        <path d="M34.1333333,181.76 L34.1333333,62.2933333 C34.1333333,57.5744 37.9562667,53.76 42.6666667,53.76 C47.3770667,53.76 51.2,57.5744 51.2,62.2933333 L51.2,181.76 C51.2,186.478933 47.3770667,190.293333 42.6666667,190.293333 C37.9562667,190.293333 34.1333333,186.478933 34.1333333,181.76 Z" id="Shape" fill="#D1D4D1"></path>
                        <path d="M474.453333,192 C469.742933,192 465.92,188.1856 465.92,183.466667 L465.92,64 C465.92,59.2810667 469.742933,55.4666667 474.453333,55.4666667 C479.163733,55.4666667 482.986667,59.2810667 482.986667,64 L482.986667,183.466667 C482.986667,188.1856 479.163733,192 474.453333,192 L474.453333,192 Z" id="Shape" fill="#D1D4D1"></path>
                        <path d="M64.8533333,192 C60.1429333,192 56.32,188.1856 56.32,183.466667 L56.32,64 C56.32,59.2810667 60.1429333,55.4666667 64.8533333,55.4666667 C69.5637333,55.4666667 73.3866667,59.2810667 73.3866667,64 L73.3866667,183.466667 C73.3866667,188.1856 69.5637333,192 64.8533333,192 L64.8533333,192 Z" id="Shape" fill="#D1D4D1"></path>
                        <path d="M88.7466667,192 C84.0362667,192 80.2133333,188.1856 80.2133333,183.466667 L80.2133333,64 C80.2133333,59.2810667 84.0362667,55.4666667 88.7466667,55.4666667 C93.4570667,55.4666667 97.28,59.2810667 97.28,64 L97.28,183.466667 C97.28,188.1856 93.4570667,192 88.7466667,192 L88.7466667,192 Z" id="Shape" fill="#D1D4D1"></path>
                        <path d="M428.373333,192 C423.662933,192 419.84,188.1856 419.84,183.466667 L419.84,64 C419.84,59.2810667 423.662933,55.4666667 428.373333,55.4666667 C433.083733,55.4666667 436.906667,59.2810667 436.906667,64 L436.906667,183.466667 C436.906667,188.1856 433.083733,192 428.373333,192 L428.373333,192 Z" id="Shape" fill="#D1D4D1"></path>
                        <path d="M450.56,192 C445.8496,192 442.026667,188.1856 442.026667,183.466667 L442.026667,64 C442.026667,59.2810667 445.8496,55.4666667 450.56,55.4666667 C455.2704,55.4666667 459.093333,59.2810667 459.093333,64 L459.093333,183.466667 C459.093333,188.1856 455.2704,192 450.56,192 L450.56,192 Z" id="Shape" fill="#D1D4D1"></path>
                        <path d="M76.8,371.2 C72.0896,371.2 68.2666667,367.3856 68.2666667,362.666667 L68.2666667,354.133333 C68.2666667,349.4144 72.0896,345.6 76.8,345.6 C81.5104,345.6 85.3333333,349.4144 85.3333333,354.133333 L85.3333333,362.666667 C85.3333333,367.3856 81.5104,371.2 76.8,371.2 L76.8,371.2 Z" id="Shape" fill="#D1D4D1"></path>
                        <path d="M102.4,371.2 C97.6896,371.2 93.8666667,367.3856 93.8666667,362.666667 L93.8666667,354.133333 C93.8666667,349.4144 97.6896,345.6 102.4,345.6 C107.1104,345.6 110.933333,349.4144 110.933333,354.133333 L110.933333,362.666667 C110.933333,367.3856 107.1104,371.2 102.4,371.2 L102.4,371.2 Z" id="Shape" fill="#D1D4D1"></path>
                        <path d="M128,371.2 C123.2896,371.2 119.466667,367.3856 119.466667,362.666667 L119.466667,354.133333 C119.466667,349.4144 123.2896,345.6 128,345.6 C132.7104,345.6 136.533333,349.4144 136.533333,354.133333 L136.533333,362.666667 C136.533333,367.3856 132.7104,371.2 128,371.2 L128,371.2 Z" id="Shape" fill="#D1D4D1"></path>
                        <path d="M153.6,371.2 C148.8896,371.2 145.066667,367.3856 145.066667,362.666667 L145.066667,354.133333 C145.066667,349.4144 148.8896,345.6 153.6,345.6 C158.3104,345.6 162.133333,349.4144 162.133333,354.133333 L162.133333,362.666667 C162.133333,367.3856 158.3104,371.2 153.6,371.2 L153.6,371.2 Z" id="Shape" fill="#D1D4D1"></path>
                        <path d="M179.2,371.2 C174.4896,371.2 170.666667,367.3856 170.666667,362.666667 L170.666667,354.133333 C170.666667,349.4144 174.4896,345.6 179.2,345.6 C183.9104,345.6 187.733333,349.4144 187.733333,354.133333 L187.733333,362.666667 C187.733333,367.3856 183.9104,371.2 179.2,371.2 L179.2,371.2 Z" id="Shape" fill="#D1D4D1"></path>
                        <path d="M204.8,371.2 C200.0896,371.2 196.266667,367.3856 196.266667,362.666667 L196.266667,354.133333 C196.266667,349.4144 200.0896,345.6 204.8,345.6 C209.5104,345.6 213.333333,349.4144 213.333333,354.133333 L213.333333,362.666667 C213.333333,367.3856 209.5104,371.2 204.8,371.2 L204.8,371.2 Z" id="Shape" fill="#D1D4D1"></path>
                        <path d="M230.4,371.2 C225.6896,371.2 221.866667,367.3856 221.866667,362.666667 L221.866667,354.133333 C221.866667,349.4144 225.6896,345.6 230.4,345.6 C235.1104,345.6 238.933333,349.4144 238.933333,354.133333 L238.933333,362.666667 C238.933333,367.3856 235.1104,371.2 230.4,371.2 L230.4,371.2 Z" id="Shape" fill="#D1D4D1"></path>
                        <path d="M256,371.2 C251.2896,371.2 247.466667,367.3856 247.466667,362.666667 L247.466667,354.133333 C247.466667,349.4144 251.2896,345.6 256,345.6 C260.7104,345.6 264.533333,349.4144 264.533333,354.133333 L264.533333,362.666667 C264.533333,367.3856 260.7104,371.2 256,371.2 L256,371.2 Z" id="Shape" fill="#D1D4D1"></path>
                        <path d="M281.6,371.2 C276.8896,371.2 273.066667,367.3856 273.066667,362.666667 L273.066667,354.133333 C273.066667,349.4144 276.8896,345.6 281.6,345.6 C286.3104,345.6 290.133333,349.4144 290.133333,354.133333 L290.133333,362.666667 C290.133333,367.3856 286.3104,371.2 281.6,371.2 L281.6,371.2 Z" id="Shape" fill="#D1D4D1"></path>
                        <path d="M307.2,371.2 C302.4896,371.2 298.666667,367.3856 298.666667,362.666667 L298.666667,354.133333 C298.666667,349.4144 302.4896,345.6 307.2,345.6 C311.9104,345.6 315.733333,349.4144 315.733333,354.133333 L315.733333,362.666667 C315.733333,367.3856 311.9104,371.2 307.2,371.2 L307.2,371.2 Z" id="Shape" fill="#D1D4D1"></path>
                        <path d="M332.8,371.2 C328.0896,371.2 324.266667,367.3856 324.266667,362.666667 L324.266667,354.133333 C324.266667,349.4144 328.0896,345.6 332.8,345.6 C337.5104,345.6 341.333333,349.4144 341.333333,354.133333 L341.333333,362.666667 C341.333333,367.3856 337.5104,371.2 332.8,371.2 L332.8,371.2 Z" id="Shape" fill="#D1D4D1"></path>
                        <path d="M358.4,371.2 C353.6896,371.2 349.866667,367.3856 349.866667,362.666667 L349.866667,354.133333 C349.866667,349.4144 353.6896,345.6 358.4,345.6 C363.1104,345.6 366.933333,349.4144 366.933333,354.133333 L366.933333,362.666667 C366.933333,367.3856 363.1104,371.2 358.4,371.2 L358.4,371.2 Z" id="Shape" fill="#D1D4D1"></path>
                        <path d="M384,371.2 C379.2896,371.2 375.466667,367.3856 375.466667,362.666667 L375.466667,354.133333 C375.466667,349.4144 379.2896,345.6 384,345.6 C388.7104,345.6 392.533333,349.4144 392.533333,354.133333 L392.533333,362.666667 C392.533333,367.3856 388.7104,371.2 384,371.2 L384,371.2 Z" id="Shape" fill="#D1D4D1"></path>
                        <path d="M409.6,371.2 C404.8896,371.2 401.066667,367.3856 401.066667,362.666667 L401.066667,354.133333 C401.066667,349.4144 404.8896,345.6 409.6,345.6 C414.3104,345.6 418.133333,349.4144 418.133333,354.133333 L418.133333,362.666667 C418.133333,367.3856 414.3104,371.2 409.6,371.2 L409.6,371.2 Z" id="Shape" fill="#D1D4D1"></path>
                        <path d="M435.2,371.2 C430.4896,371.2 426.666667,367.3856 426.666667,362.666667 L426.666667,354.133333 C426.666667,349.4144 430.4896,345.6 435.2,345.6 C439.9104,345.6 443.733333,349.4144 443.733333,354.133333 L443.733333,362.666667 C443.733333,367.3856 439.9104,371.2 435.2,371.2 L435.2,371.2 Z" id="Shape" fill="#D1D4D1"></path>
                        <g transform="translate(0.000000, 366.933333)" id="Shape" fill="#8697CB">
                            <path d="M68.2666667,72.5333333 L0,72.5333333 L0,12.8 C0,8.08106667 3.82293333,4.26666667 8.53333333,4.26666667 C13.2437333,4.26666667 17.0666667,8.08106667 17.0666667,12.8 L17.0666667,55.4666667 L68.2666667,55.4666667 C72.9770667,55.4666667 76.8,59.2810667 76.8,64 C76.8,68.7189333 72.9770667,72.5333333 68.2666667,72.5333333 L68.2666667,72.5333333 Z"></path>
                            <path d="M512,72.5333333 L452.266667,72.5333333 C447.556267,72.5333333 443.733333,68.7189333 443.733333,64 C443.733333,59.2810667 447.556267,55.4666667 452.266667,55.4666667 L494.933333,55.4666667 L494.933333,12.8 C494.933333,8.08106667 498.756267,4.26666667 503.466667,4.26666667 C508.177067,4.26666667 512,8.08106667 512,12.8 L512,72.5333333 L512,72.5333333 Z"></path>
                        </g>
                        <g id="Shape" fill="#8697CB">
                            <path d="M503.466667,72.5333333 C498.756267,72.5333333 494.933333,68.7189333 494.933333,64 L494.933333,21.3333333 L443.733333,21.3333333 C439.022933,21.3333333 435.2,17.5189333 435.2,12.8 C435.2,8.08106667 439.022933,4.26666667 443.733333,4.26666667 L512,4.26666667 L512,64 C512,68.7189333 508.177067,72.5333333 503.466667,72.5333333 L503.466667,72.5333333 Z"></path>
                            <path d="M8.53333333,72.5333333 C3.82293333,72.5333333 0,68.7189333 0,64 L0,4.26666667 L59.7333333,4.26666667 C64.4437333,4.26666667 68.2666667,8.08106667 68.2666667,12.8 C68.2666667,17.5189333 64.4437333,21.3333333 59.7333333,21.3333333 L17.0666667,21.3333333 L17.0666667,64 C17.0666667,68.7189333 13.2437333,72.5333333 8.53333333,72.5333333 L8.53333333,72.5333333 Z"></path>
                        </g>
                        <path d="M503.466667,217.6 L8.53333333,217.6 C3.82293333,217.6 0,213.7856 0,209.066667 C0,204.347733 3.82293333,200.533333 8.53333333,200.533333 L503.466667,200.533333 C508.177067,200.533333 512,204.347733 512,209.066667 C512,213.7856 508.177067,217.6 503.466667,217.6 L503.466667,217.6 Z" id="Shape" fill="#D75A4A"></path>
                    </g>
                </g>
                <path d="M178.326187,121.582933 C178.326187,138.622379 172.464414,150.746417 160.740693,157.955413 L160.740693,166.25664 C160.740693,171.426728 162.852388,174.011733 167.07584,174.011733 C169.478839,174.011733 171.117222,173.392788 171.99104,172.15488 C172.573585,171.281062 172.93767,169.60627 173.083307,167.130453 C173.228943,163.708001 174.53965,161.9968 177.015467,161.9968 C179.855374,161.9968 181.275307,163.780818 181.275307,167.348907 C181.275307,171.353904 179.982804,174.576059 177.39776,177.015467 C174.812716,179.454874 171.444927,180.67456 167.294293,180.67456 C158.119207,180.67456 153.531733,176.451171 153.531733,168.004267 L153.531733,160.3584 C151.274371,160.868127 149.017042,161.122987 146.75968,161.122987 C137.074867,161.122987 129.374464,157.664177 123.65824,150.746453 C117.942016,143.82873 115.083947,134.508148 115.083947,122.784427 C115.083947,110.550979 117.923812,100.939128 123.603627,93.9485867 C129.283442,86.958045 137.111275,83.4628267 147.08736,83.4628267 C156.699355,83.4628267 164.308736,86.885228 169.915733,93.7301333 C175.52273,100.575039 178.326187,109.859212 178.326187,121.582933 L178.326187,121.582933 Z M160.84992,143.31904 L160.84992,149.108053 C162.961646,146.4866 164.490804,143.974412 165.43744,141.571413 C167.621984,135.745962 168.71424,129.010385 168.71424,121.36448 C168.71424,111.825303 166.820997,104.434373 163.034453,99.1914667 C159.24791,93.9485605 153.932265,91.3271467 147.08736,91.3271467 C139.951182,91.3271467 134.380678,94.057786 130.37568,99.5191467 C126.370682,104.980507 124.368213,112.626298 124.368213,122.456747 C124.368213,136.146557 127.717798,145.649182 134.417067,150.964907 C132.450977,147.760908 131.467947,144.702592 131.467947,141.789867 C131.467947,138.221778 132.942492,135.218074 135.891627,132.778667 C138.840761,130.339259 142.46341,129.119573 146.75968,129.119573 C151.201587,129.119573 154.660397,130.375667 157.136213,132.887893 C159.61203,135.400119 160.84992,138.877133 160.84992,143.31904 L160.84992,143.31904 Z M146.868907,154.023253 C148.68936,154.023253 150.946689,153.659168 153.64096,152.930987 L153.64096,144.520533 C153.64096,138.7679 151.201589,135.891627 146.322773,135.891627 C143.70132,135.891627 141.553217,136.692614 139.8784,138.294613 C138.203583,139.896612 137.366187,141.971898 137.366187,144.520533 C137.366187,147.360441 138.239991,149.654178 139.987627,151.401813 C141.735262,153.149449 144.028999,154.023253 146.868907,154.023253 L146.868907,154.023253 Z M231.30112,155.989333 L231.30112,152.603307 C227.441758,157.919031 221.72562,160.576853 214.152533,160.576853 C205.559993,160.576853 199.588995,157.919031 196.23936,152.603307 C194.782997,150.273126 193.98201,147.542487 193.836373,144.411307 C193.763555,142.882126 193.727147,139.678176 193.727147,134.79936 L193.727147,125.733547 C193.727147,115.757461 192.671299,110.769493 190.559573,110.769493 C190.122664,110.769493 189.430903,110.860515 188.484267,111.04256 C187.537631,111.224605 186.80946,111.315627 186.299733,111.315627 C183.751098,111.315627 182.4768,110.114145 182.4768,107.711147 C182.4768,105.380966 184.042367,104.215893 187.173547,104.215893 C187.901728,104.215893 188.97578,104.28871 190.395733,104.434347 C191.815687,104.579983 192.889739,104.6528 193.61792,104.6528 C194.273283,104.6528 195.401948,104.543574 197.003947,104.32512 C198.096219,104.179484 198.715164,104.106667 198.8608,104.106667 C201.118162,104.106667 202.246827,105.490191 202.246827,108.25728 L202.246827,110.55104 L202.1376,117.650773 L201.80992,125.733547 L201.80992,132.83328 C201.80992,139.168458 202.319639,143.719524 203.339093,146.486613 C205.013911,151.074156 209.018848,153.367893 215.354027,153.367893 C218.485207,153.367893 221.252255,152.657927 223.655253,151.237973 C226.058252,149.81802 227.733044,147.942981 228.67968,145.6128 C229.84477,142.772892 230.427307,137.384431 230.427307,129.447253 L230.427307,123.439787 L230.427307,116.340053 C230.063216,112.844783 229.116594,111.097173 227.587413,111.097173 C226.786414,111.097173 226.13106,111.16999 225.621333,111.315627 L224.310613,111.315627 C221.761978,111.315627 220.48768,110.186962 220.48768,107.9296 C220.48768,105.380965 221.907612,104.106667 224.74752,104.106667 C225.402883,104.106667 226.404118,104.179484 227.751253,104.32512 C229.098389,104.470756 230.099623,104.543573 230.754987,104.543573 C231.337532,104.543573 232.211336,104.488961 233.376427,104.379733 C234.541517,104.270506 235.415322,104.215893 235.997867,104.215893 C238.182411,104.215893 239.274667,105.380966 239.274667,107.711147 C239.274667,108.730601 239.20185,109.531588 239.056213,110.114133 C238.692123,112.881223 238.51008,116.958978 238.51008,122.34752 L238.51008,139.168427 C238.51008,143.610333 238.546489,146.086113 238.619307,146.59584 C238.983397,150.455202 240.002836,152.384853 241.677653,152.384853 C242.18738,152.384853 242.915551,152.293832 243.862187,152.111787 C244.808823,151.929741 245.536993,151.83872 246.04672,151.83872 C248.522537,151.83872 249.760427,153.040201 249.760427,155.4432 C249.760427,157.919017 248.231269,159.156907 245.172907,159.156907 C244.517543,159.156907 243.570922,159.08409 242.333013,158.938453 C240.51256,158.719999 239.383896,158.610773 238.946987,158.610773 C238.728532,158.610773 237.963953,158.68359 236.653227,158.829227 C235.779409,159.047681 235.01483,159.156907 234.359467,159.156907 C232.320559,159.156907 231.30112,158.101059 231.30112,155.989333 L231.30112,155.989333 Z M272.042667,127.044267 L272.042667,141.243733 C272.042667,144.88464 272.079075,147.032743 272.151893,147.688107 C272.515984,150.964923 273.499014,152.603307 275.101013,152.603307 C275.465104,152.603307 276.375317,152.421264 277.83168,152.057173 C278.195771,151.911537 278.741899,151.83872 279.47008,151.83872 C282.237169,151.83872 283.620693,153.040201 283.620693,155.4432 C283.620693,156.462654 283.165587,157.336459 282.25536,158.06464 C281.345133,158.792821 280.198265,159.156907 278.81472,159.156907 C277.64963,159.156907 275.883816,158.993068 273.517227,158.665387 C271.150637,158.337705 269.384824,158.173867 268.219733,158.173867 C266.326462,158.173867 264.214767,158.319501 261.884587,158.610773 C259.044679,158.974864 257.151436,159.156907 256.2048,159.156907 C253.292074,159.156907 251.835733,157.919017 251.835733,155.4432 C251.835733,153.040201 253.073623,151.83872 255.54944,151.83872 C256.131985,151.83872 256.987585,151.947946 258.116267,152.1664 C259.244948,152.384854 260.100548,152.49408 260.683093,152.49408 C262.430729,152.49408 263.486576,150.163934 263.850667,145.503573 L263.850667,136.000853 L263.850667,127.044267 L263.850667,117.541547 C263.486576,112.954004 262.39432,110.660267 260.573867,110.660267 C259.991322,110.660267 259.17213,110.787697 258.116267,111.04256 C257.060404,111.297423 256.27762,111.424853 255.767893,111.424853 C253.14644,111.424853 251.835733,110.259781 251.835733,107.9296 C251.835733,105.453783 253.437708,104.215893 256.641707,104.215893 C258.025251,104.215893 259.008282,104.252302 259.590827,104.32512 C261.921007,104.616393 263.413757,104.762027 264.06912,104.762027 C264.651665,104.762027 265.543674,104.671005 266.745173,104.48896 C267.946673,104.306915 268.838682,104.215893 269.421227,104.215893 C271.532953,104.215893 272.5888,105.635826 272.5888,108.475733 C272.5888,108.767006 272.552391,109.203908 272.479573,109.786453 C272.406755,110.368998 272.370347,110.805901 272.370347,111.097173 C272.297529,111.679718 272.224711,113.937047 272.151893,117.869227 C272.079075,120.85477 272.042667,123.913087 272.042667,127.044267 L272.042667,127.044267 Z M266.36288,98.42688 C264.688063,98.42688 263.249926,97.8261393 262.048427,96.62464 C260.846927,95.4231407 260.246187,93.9850039 260.246187,92.3101867 C260.246187,90.6353694 260.846927,89.2154369 262.048427,88.0503467 C263.249926,86.8852564 264.688063,86.30272 266.36288,86.30272 C268.037697,86.30272 269.475834,86.8852564 270.677333,88.0503467 C271.878833,89.2154369 272.479573,90.6353694 272.479573,92.3101867 C272.479573,93.9850039 271.878833,95.4231407 270.677333,96.62464 C269.475834,97.8261393 268.037697,98.42688 266.36288,98.42688 L266.36288,98.42688 Z M305.247573,131.085653 L323.925333,113.609387 C324.580697,113.026842 324.908373,112.371488 324.908373,111.643307 C324.908373,110.915125 324.435063,110.55104 323.488427,110.55104 C322.760245,110.55104 321.704398,110.696674 320.320853,110.987947 C318.937309,111.279219 317.881461,111.424853 317.15328,111.424853 C314.604645,111.424853 313.330347,110.259781 313.330347,107.9296 C313.330347,105.380965 314.932322,104.106667 318.13632,104.106667 C318.93732,104.106667 319.956758,104.179484 321.194667,104.32512 C326.219118,104.907665 330.042014,105.198933 332.663467,105.198933 C334.11983,105.198933 335.357719,105.126116 336.377173,104.98048 L340.855467,104.32512 C341.874921,104.179484 342.712317,104.106667 343.36768,104.106667 C346.935769,104.106667 348.719787,105.344557 348.719787,107.820373 C348.719787,110.150554 347.481897,111.315627 345.00608,111.315627 C344.423535,111.315627 343.604343,111.24281 342.54848,111.097173 C341.492617,110.951537 340.673425,110.87872 340.09088,110.87872 C338.270426,110.87872 336.377183,111.788933 334.411093,113.609387 L322.942293,124.095147 C322.141294,124.823328 321.7408,125.405864 321.7408,125.842773 C321.7408,126.206864 322.032068,126.752992 322.614613,127.481173 L336.595627,145.6128 C340.163716,150.200343 342.712312,152.49408 344.241493,152.49408 C344.605584,152.49408 345.206325,152.403059 346.043733,152.221013 C346.881142,152.038968 347.5547,151.947947 348.064427,151.947947 C350.68588,151.947947 351.996587,153.113019 351.996587,155.4432 C351.996587,157.919017 350.321795,159.156907 346.97216,159.156907 C345.661433,159.156907 343.713577,159.011273 341.128533,158.72 C338.543489,158.428727 336.595633,158.283093 335.284907,158.283093 C334.119816,158.283093 332.42682,158.428727 330.205867,158.72 C327.984913,159.011273 326.328325,159.156907 325.236053,159.156907 C322.468964,159.156907 321.08544,157.919017 321.08544,155.4432 C321.08544,153.113019 322.396147,151.947947 325.0176,151.947947 C325.745781,151.947947 326.328318,151.984355 326.765227,152.057173 C328.075953,152.421264 328.913349,152.603307 329.27744,152.603307 C329.932803,152.603307 330.26048,152.348447 330.26048,151.83872 L330.26048,151.51104 C330.187662,151.438222 330.151253,151.365405 330.151253,151.292587 L329.058987,149.763413 L327.63904,147.688107 L316.716373,133.16096 C315.988192,132.214324 315.405656,131.741013 314.968747,131.741013 C314.677474,131.741013 314.131346,132.105099 313.330347,132.83328 L305.247573,140.04224 L305.247573,142.554453 C305.247573,146.049724 305.283982,148.015784 305.3568,148.452693 C305.720891,151.001328 306.740329,152.275627 308.415147,152.275627 C309.143328,152.275627 309.762273,152.221014 310.272,152.111787 C310.781727,152.002559 311.473489,151.947947 312.347307,151.947947 C314.823123,151.947947 316.061013,153.149428 316.061013,155.552427 C316.061013,157.955425 314.677489,159.156907 311.9104,159.156907 C310.672492,159.156907 308.797453,158.993068 306.285227,158.665387 C303.773001,158.337705 301.861553,158.173867 300.550827,158.173867 C298.876009,158.173867 296.946358,158.319501 294.761813,158.610773 C291.994724,158.974864 290.137889,159.156907 289.191253,159.156907 C286.351346,159.156907 284.931413,157.955425 284.931413,155.552427 C284.931413,153.149428 286.314937,151.947947 289.082027,151.947947 C289.664572,151.947947 290.356334,152.020764 291.157333,152.1664 C292.322424,152.384854 293.123411,152.49408 293.56032,152.49408 C295.307955,152.49408 296.290986,151.110556 296.50944,148.343467 L296.83712,144.083627 L296.83712,99.9560533 C296.691484,96.0238737 296.436624,93.5298897 296.072533,92.4740267 C295.708443,91.4181636 294.943864,90.89024 293.778773,90.89024 C293.414683,90.89024 292.722921,90.963057 291.703467,91.1086933 C290.684013,91.472784 289.664574,91.6548267 288.64512,91.6548267 C286.242121,91.6548267 285.04064,90.5261624 285.04064,88.2688 C285.04064,85.7929832 286.460572,84.5550933 289.30048,84.5550933 C290.756843,84.5550933 291.776282,84.5915019 292.358827,84.66432 C294.17928,84.8827744 295.380762,84.992 295.963307,84.992 C296.545852,84.992 297.401452,84.9009787 298.530133,84.7189333 C299.658815,84.536888 300.478006,84.4458667 300.987733,84.4458667 L301.75232,84.4458667 C304.082501,84.4458667 305.247573,85.9386162 305.247573,88.92416 L305.247573,131.085653 Z M380.286293,102.249813 C385.165109,102.249813 389.242864,103.524112 392.51968,106.072747 L392.51968,105.63584 C392.51968,102.941569 393.684753,101.594453 396.014933,101.594453 C398.417932,101.594453 399.619413,102.759526 399.619413,105.089707 C399.619413,105.526616 399.546596,106.618871 399.40096,108.366507 C399.109687,109.82287 398.964053,111.27921 398.964053,112.735573 C398.964053,113.609391 399.091483,114.883689 399.346347,116.558507 C399.60121,118.233324 399.72864,119.507622 399.72864,120.38144 C399.72864,123.148529 398.527159,124.532053 396.12416,124.532053 C393.793979,124.532053 392.592498,123.366981 392.51968,121.0368 L392.410453,117.43232 C392.337635,115.247776 391.081541,113.372737 388.642133,111.807147 C386.202726,110.241557 383.344656,109.458773 380.06784,109.458773 C376.718205,109.458773 373.914749,110.314374 371.657387,112.0256 C369.400024,113.736826 368.27136,115.866725 368.27136,118.41536 C368.27136,123.075721 371.47531,125.842769 377.883307,126.716587 L384.218453,127.5904 C396.597537,129.265217 402.786987,134.398819 402.786987,142.99136 C402.786987,148.234266 400.784518,152.475859 396.77952,155.716267 C392.774522,158.956674 387.531695,160.576853 381.05088,160.576853 C375.006974,160.576853 369.764147,158.865653 365.32224,155.4432 C365.395058,156.171381 365.431467,156.863143 365.431467,157.518507 C365.431467,160.13996 364.193577,161.450667 361.71776,161.450667 C359.023489,161.450667 357.676373,159.957917 357.676373,156.972373 C357.676373,157.4821 357.894824,155.588857 358.331733,151.292587 C358.47737,150.273133 358.550187,149.253694 358.550187,148.23424 C358.550187,146.486605 358.404553,144.848221 358.11328,143.31904 C357.822007,141.789859 357.676373,140.588378 357.676373,139.71456 C357.676373,137.165925 358.841446,135.891627 361.171627,135.891627 C362.700808,135.891627 363.665634,136.255712 364.066133,136.983893 C364.466633,137.712075 364.703289,139.641727 364.776107,142.772907 C364.848925,145.904087 366.487308,148.452684 369.691307,150.418773 C372.895305,152.384863 376.97306,153.367893 381.924693,153.367893 C385.492782,153.367893 388.441873,152.45768 390.772053,150.637227 C393.102234,148.816773 394.267307,146.523036 394.267307,143.755947 C394.267307,138.804313 390.335186,135.92804 382.470827,135.12704 C374.970558,134.32604 369.25442,132.851495 365.32224,130.70336 C361.39006,128.555225 359.424,124.786942 359.424,119.3984 C359.424,114.30113 361.353652,110.168763 365.213013,107.001173 C369.072375,103.833584 374.096751,102.249813 380.286293,102.249813 L380.286293,102.249813 Z" id="Quiks" fill="#D1D4D1" style="mix-blend-mode: color-burn;"></path>
            </g>
        </g>
    </g>
</svg>